<svg xmlns="http://www.w3.org/2000/svg" version="1.1" x="0px" y="0px" width="100px" height="100px" viewBox="0 0 100 100" enable-background="new 0 0 100 100" xml:space="preserve" fill="rgb(105, 113, 124)">
	<path d="M40.695,68c0,0-6.83-0.974-10.245-5.528c-3.415-4.553-4.553-10.161-3.415-14.714c1.138-4.553,5.691-6.789,4.553-10.204     s2.277,4.574,1.138,6.85c-1.138,2.277,3.415,3.425,4.553,0.01c1.138-3.415-2.695-7.661-3.415-9.101     c-2.277-4.553-0.647-10.977,1.138-13.656c2.276-3.415,3.748-4.885,4.553-5.69c2.277-2.276-2.276,3.416-1.138,7.969     c1.138,4.553,3.415,7.967,5.691,6.829c2.277-1.138-0.741-3.251-1.138-6.829C41.833,13.691,49.802,8,49.802,8     s1.138,17.074,5.69,19.351c3.219,1.609,3.415,7.968,1.139,12.521c-2.099,4.198-6.829,10.244-3.415,13.659     c3.415,3.415,9.106,3.415,11.384,1.139c2.275-2.276,2.275-6.83,3.414-9.106c1.138-2.276-2.181,4.649,1.138,7.967     c3.415,3.416,0,13.659-3.415,14.798c-3.414,1.138-9.105,1.138-10.244,1.138s2.277-1.138,1.139-4.552     c-1.139-3.415,0,4.552-2.277-1.139c-2.275-5.691-8.91-3.611-5.69-6.83c1.138-1.138-2.276,0-1.138,3.415s4.553,4.554,1.138,5.69     c-2.16,0.722-6.83-3.414-6.83-5.69s1.139-7.968,1.139-7.968s-3.416,3.415-4.554,6.829c-0.72,2.16,1.139,4.389,2.277,5.527     C41.833,65.888,44.11,67,44.11,68S40.695,68,40.695,68z"/>
	<path d="M54.354,51.254C54.354,51.254,55.492,46.702,54.354,51.254c-0.616,2.47,5.692,4.554,7.969,2.277     c2.277-2.277,2.277-6.83,2.277-10.245c0-3.415,2.275-7.968,3.414-9.106C69.151,33.042,53.215,43.287,54.354,51.254z"/>
	<path d="M32.625,66.853l-20.519,0.241c0,0-2.177,2.866-1.831,5.388c0.345,2.522,1.769,5.41,5.368,5.432     c3.6,0.019,19.483-7.808,19.483-7.808L32.625,66.853z"/>
	<path d="M70.541,67.081l-1.92,3.627L86.13,76.77c0,0,4.087,0.378,6.009-3.249c1.921-3.626-2.788-7.551-2.788-7.551L70.541,67.081     z"/>
	<path d="M41.866,70.536l5.659,1.207l1.138,14.798c0,0-5.372,6.355-10.245,3.415c-4.873-2.942-7.913-5.005-7.711-7.543     C30.909,79.875,41.866,70.536,41.866,70.536z"/>
	<path d="M53.216,71.743l6.137-0.504l12.545,8.655c0,0,0.92,3.288-2.064,5.304c-2.981,2.017-8.12,4.06-10.926,2.48     C56.102,86.098,53.216,71.743,53.216,71.743z"/>
</svg>
