<svg version="1.1" id="Layer_1" xmlns="http://www.w3.org/2000/svg" x="0px" y="0px"
	 width="100px" height="100px" viewBox="0 0 100 63.641" enable-background="new 0 0 100 63.641" xml:space="preserve" fill="rgb(105, 113, 124)">
<path d="M86.366,36.364L86.366,36.364h-6.819c-2.51,0-4.546-2.033-4.546-4.544c0-2.509,2.036-4.546,4.546-4.546
	h6.819c2.511,0,4.546-2.037,4.546-4.544c0-2.512-2.035-4.546-4.546-4.546s-4.546-2.037-4.546-4.546c0-2.509,2.035-4.546,4.546-4.546
	c0.313,0,0.615,0.032,0.912,0.093C94.373,9.665,100,15.512,100,22.73C100,30.259,93.897,36.364,86.366,36.364z"/>
<path d="M63.636,27.274H59.09H43.183H13.636c-2.509,0-4.543,2.037-4.543,4.546c0,2.511,2.034,4.544,4.543,4.544
	h4.546h9.09h6.819h9.092h6.819h9.087h4.546c7.532,0,13.639,6.108,13.639,13.638c0,7.219-5.627,13.065-12.722,13.545
	c-0.298,0.062-0.6,0.094-0.917,0.094c-2.511,0-4.546-2.038-4.546-4.546c0-2.513,2.035-4.546,4.546-4.546s4.546-2.038,4.546-4.547
	c0-2.508-2.035-4.546-4.546-4.546H59.09h-9.087h-6.819h-9.092h-6.819h-9.09h-4.546C6.105,45.456,0,39.352,0,31.82
	c0-7.216,5.626-13.063,12.72-13.545c0.297-0.059,0.605-0.091,0.916-0.091l0,0h29.547H59.09h4.546c2.511,0,4.546-2.037,4.546-4.546
	c0-2.509-2.035-4.546-4.546-4.546S59.09,7.058,59.09,4.546C59.09,2.037,61.125,0,63.636,0c0.317,0,0.619,0.035,0.917,0.093
	c7.095,0.479,12.722,6.326,12.722,13.545C77.274,21.167,71.168,27.274,63.636,27.274z"/>
</svg>
